<?xml version="1.0" encoding="utf-8"?>
<svg version="1.1" xmlns="http://www.w3.org/2000/svg" x="0px" y="0px"
	 viewBox="0 0 16 16" style="enable-background:new 0 0 16 16;" xml:space="preserve">
<g>
	<path fill="#1D2D3E" d="M16,4.7c-0.3-1.4-1.3-0.5-1.3-0.5L12,10.8H6.6L3.3,2.3L0.5,2.1c-1,0.5-0.1,1.5-0.1,1.5l1.9,0.1l3.5,8.5h7.3 l0.5-1.4L16,4.7z"/>
	<path fill="#1D2D3E" d="M6.7,12.6c-0.6,0-1.2,0.5-1.2,1.2C5.5,14.4,6,15,6.7,15s1.2-0.5,1.2-1.2C7.9,13.2,7.4,12.6,6.7,12.6z"/>
	<path fill="#1D2D3E" d="M12.1,12.6c-0.6,0-1.2,0.5-1.2,1.2c0,0.6,0.5,1.2,1.2,1.2s1.2-0.5,1.2-1.2C13.3,13.2,12.7,12.6,12.1,12.6z"/>
</g>
	<path fill="#3A7CAE" fill-rule="evenodd" d="M 9.3547222,4.8632124 H 7.8547061 V 3.3632123 H 9.3547062 V 4.8632124 Z M 7.3547061,5.8632127 v 0.499992 h 2.5000157 v -0.499992 z m 0,-3.0000004 V 5.3632044 H 9.8547218 V 2.8632043 H 7.3547061 Z m 3.0000079,3.0000004 v 0.499992 h 2.000008 v -0.499992 h -2 z m 0,-1.0000003 v 0.499992 h 2.000008 v -0.5 h -2 z m 0,-1.000008 v 0.5 h 2.000008 v -0.5 h -2 z m 0,-1.0000001 v 0.5 h 2.000008 v -0.5 h -2 z M 6.280498,6.7889808 c -0.04952,0.04952 -0.108088,0.07424 -0.175776,0.07424 -0.06776,0 -0.126328,-0.02472 -0.175776,-0.07424 -0.04952,-0.04944 -0.07424,-0.1080321 -0.07424,-0.1757841 V 2.8631963 h 0.499992 v 3.7500164 c 0,0.06776 -0.0248,0.126328 -0.07424,0.1757681 z m 6.499999,0 c -0.04952,0.04952 -0.108095,0.07424 -0.175775,0.07424 H 6.8117461 c 0.02864,-0.080688 0.04296,-0.1640561 0.04296,-0.2500161 V 2.3632283 h 5.9999989 v 4.2500004 c 0,0.06776 -0.0248,0.126344 -0.07424,0.1757921 z M 6.3547221,1.8632123 v 0.5 H 5.354722 v 4.2499764 c 0,0.2083681 0.07288,0.3854241 0.21876,0.5312404 0.145808,0.145896 0.322864,0.21876 0.53124,0.21876 h 6.5 c 0.208303,0 0.385375,-0.07288 0.531239,-0.218744 0.145824,-0.1458243 0.218761,-0.3228803 0.218761,-0.5312564 V 1.8631883 H 6.3547221 Z" />
</svg>
