<?xml version="1.0" encoding="UTF-8" standalone="no"?>
<svg version="1.1" xmlns="http://www.w3.org/2000/svg" x="0px" y="0px" width="96px" height="96px" viewBox="0 0 32 32" xml:space="preserve">
    <path fill="#7d84df" d="M 27.999,8 H 10.001 V 6 H 27.999 Z M 18,16 h 9.999 V 14 H 18 Z M 10,12 H 27.999 V 10 H 10 Z M 6,14.666667 H 8 V 2 H 30 V 30 H 16.666667 v 2 H 32 V 0 H 6 Z"/>
    <g transform="matrix(1.0434968,0,0,1.0434968,0.93083149,14.842612)">
        <path fill="#7d84df" d="M 16,4.7 C 15.7,3.3 14.7,4.2 14.7,4.2 L 12,10.8 H 6.6 L 3.3,2.3 0.5,2.1 c -1,0.5 -0.1,1.5 -0.1,1.5 l 1.9,0.1 3.5,8.5 h 7.3 l 0.5,-1.4 z"/>
        <path fill="#7d84df" d="m 6.7,12.6 c -0.6,0 -1.2,0.5 -1.2,1.2 0,0.6 0.5,1.2 1.2,1.2 0.7,0 1.2,-0.5 1.2,-1.2 0,-0.6 -0.5,-1.2 -1.2,-1.2 z"/>
        <path fill="#7d84df" d="m 12.1,12.6 c -0.6,0 -1.2,0.5 -1.2,1.2 0,0.6 0.5,1.2 1.2,1.2 0.7,0 1.2,-0.5 1.2,-1.2 0,-0.6 -0.6,-1.2 -1.2,-1.2 z"/>
        <path fill="#7d84df" d="M 9.1,1.4 C 7.5,1.8 5.4,2 5.4,3.1 5.4,5.1 7.2,10 8.8,10 H 9.1 C 10.3,10 11.6,8 12,7.3 10.9,7.9 7.8,2 9.1,1.4 Z M 13.8,2 C 13.4,1.2 11.8,1.2 10.9,1.2 9.2,1.2 11.4,5.4 12.5,5.9 13.4,5 14.3,2.8 13.8,2 Z"/>
    </g>
</svg>